<svg xmlns="http://www.w3.org/2000/svg" xmlns:xlink="http://www.w3.org/1999/xlink" fill="none" version="1.1" width="149.83151245117188" height="20" viewBox="0 0 149.83151245117188 20"><defs><clipPath id="master_svg0_0_734"><rect x="0" y="0" width="149.83151245117188" height="20" rx="0"/></clipPath></defs><g style="mix-blend-mode:passthrough"><g style="mix-blend-mode:passthrough" clip-path="url(#master_svg0_0_734)"><g style="mix-blend-mode:passthrough"><g style="mix-blend-mode:passthrough"><g style="mix-blend-mode:passthrough"><path d="M6.032377158764973,4.24182349074707C4.136107158764974,4.281466740747069,2.477697158764973,5.52361614074707,1.9028771587649733,7.32738614074707C1.2950071587649732,10.062766140747069,0.6871491587649733,12.80475614074707,0.07928645876497328,15.54011614074707C-0.3832178412350267,18.50681614074707,1.1364371587649733,19.94711614074707,4.036997158764973,20.000016140747068C9.824907158764974,20.000016140747068,15.612867158764974,20.000016140747068,21.400767158764975,20.000016140747068C21.572467158764972,19.21371614074707,21.750867158764972,18.42091614074707,21.922667158764973,17.63461614074707C16.987067158764972,17.63461614074707,12.044967158764972,17.63461614074707,7.109347158764973,17.63461614074707C6.666667158764973,17.62141614074707,6.336307158764973,17.41661614074707,6.197557158764973,16.98051614074707C6.072017158764973,16.61051614074707,6.118267158764973,16.15461614074707,6.190947158764973,15.784616140747069C6.369337158764973,14.98511614074707,6.541127158764973,14.18566614074707,6.719527158764973,13.39279614074707C7.096137158764973,11.69474614074707,7.472747158764974,9.99008614074707,7.849357158764973,8.292036140747069C7.935247158764973,7.935246140747069,8.054177158764974,7.598286140747069,8.239177158764972,7.274526140747069C8.391147158764973,7.016846140747069,8.681857158764974,6.613806140747069,9.045257158764974,6.6005961407470695C11.291667158764973,6.6005961407470695,13.538167158764974,6.6005961407470695,15.777967158764973,6.6005961407470695C15.949767158764974,5.81433614074707,16.128167158764974,5.021473140747069,16.299967158764975,4.235216140747069C12.884067158764973,4.24182334074707,9.454907158764973,4.24182349074707,6.032377158764973,4.24182349074707Z" fill="#2387FF" fill-opacity="1"/></g><g style="mix-blend-mode:passthrough"><path d="M18.883377099484576,15.7648C20.891977099484578,15.7251,22.616477099484577,14.3376,23.092177099484577,12.3885C23.647177099484576,9.87777,24.20217709948458,7.373639999999999,24.75717709948458,4.862899999999999C25.39147709948458,1.7575199999999993,24.043577099484576,0.05946479999999941,20.872177099484578,-5.868373960497841e-16C15.090877099484578,-5.868373960497841e-16,9.309547099484579,-5.868373960497841e-16,3.521639099484578,-5.868373960497841e-16C3.3498510994845776,0.7862569999999994,3.178064099484578,1.5791199999999994,3.0062770994845778,2.3653799999999996C7.941857099484578,2.3653799999999996,12.884047099484578,2.3653799999999996,17.819577099484576,2.3653799999999996C18.268877099484577,2.3785899999999995,18.599277099484578,2.5900199999999995,18.737977099484578,3.0327099999999994C18.856977099484578,3.4093199999999997,18.81067709948458,3.8718199999999996,18.737977099484578,4.241819999999999C18.559677099484578,5.028079999999999,18.381277099484578,5.814339999999999,18.20947709948458,6.607199999999999C17.839477099484576,8.27882,17.46947709948458,9.95045,17.099477099484577,11.6221C17.020177099484577,11.9855,16.89457709948458,12.3621,16.709577099484576,12.6858C16.564277099484578,12.9567,16.260277099484576,13.3862,15.883677099484578,13.3994C13.637277099484578,13.3994,11.390817099484577,13.3994,9.150977099484578,13.3994C8.979187099484577,14.1857,8.800797099484578,14.9785,8.629007099484578,15.7648C12.044927099484578,15.7648,15.467477099484578,15.7648,18.883377099484576,15.7648Z" fill="#2387FF" fill-opacity="1"/></g></g><g style="mix-blend-mode:passthrough"><g style="mix-blend-mode:passthrough"><path d="M38.41430465571322,17.694113448333738C36.366034655713214,17.694113448333738,34.32440465571322,17.694113448333738,32.27617465571321,17.694113448333738C29.184007655713216,17.64121344833374,27.862568655713215,15.97621344833374,28.483645655713214,12.95011344833374C29.025435655713217,10.49884344833374,29.567224655713215,8.05417344833374,30.109014655713217,5.602903448333739C30.571524655713215,3.70003344833374,32.25635465571322,2.34555664833374,34.218694655713215,2.30591344833374C36.504784655713216,2.30591344833374,38.79750465571321,2.30591344833374,41.083604655713216,2.30591344833374C40.76640465571322,3.0723484483337398,40.44930465571321,3.8453934483337395,40.125504655713215,4.611823448333739C38.17640465571321,4.611823448333739,36.22728465571321,4.611823448333739,34.278154655713216,4.611823448333739C33.921374655713215,4.62504344833374,33.637254655713214,5.02147344833374,33.49190465571321,5.27254344833374C33.31350465571322,5.58969344833374,33.19457465571322,5.91344344833374,33.10868465571322,6.26362344833374C32.56689465571321,8.701683448333739,32.025104655713214,11.139743448333741,31.489924655713217,13.57781344833374C31.417244655713215,13.93461344833374,31.377594655713217,14.37731344833374,31.496524655713216,14.74071344833374C31.635274655713214,15.16351344833374,31.952424655713216,15.36831344833374,32.38850465571321,15.374913448333741C34.71423465571321,15.374913448333741,37.03996465571321,15.374913448333741,39.365704655713216,15.374913448333741C39.04860465571322,16.154613448333738,38.73140465571321,16.92761344833374,38.41430465571322,17.694113448333738Z" fill="#2387FF" fill-opacity="1"/></g><g style="mix-blend-mode:passthrough"><path d="M62.21340491328158,8.186319002304078C61.103394913281576,8.186319002304078,59.999994913281576,8.186319002304078,58.88998491328157,8.186319002304078C58.53319491328158,8.199539002304077,58.24908491328158,8.595969002304077,58.103724913281575,8.847039002304077C57.925334913281574,9.164189002304077,57.806404913281575,9.487939002304078,57.72050491328157,9.838119002304078C57.139074913281576,12.454579002304076,56.557634913281575,15.077639002304076,55.97620491328158,17.694109002304078C55.00494491328158,17.694109002304078,54.03368391328158,17.694109002304078,53.062424913281575,17.694109002304078C53.690109913281574,14.852989002304078,54.324404913281576,12.011889002304077,54.952084913281574,9.177399002304078C55.414594913281576,7.274529002304077,57.099424913281574,5.920052202304078,59.06176491328158,5.880409002304077C60.42946491328158,5.880409002304077,61.803764913281576,5.880409002304077,63.17142491328158,5.880409002304077C62.84769491328157,6.646844002304077,62.53055491328158,7.419889002304077,62.21340491328158,8.186319002304078Z" fill="#2387FF" fill-opacity="1"/></g><g style="mix-blend-mode:passthrough"><path d="M53.32012844111361,5.880409002304077C52.4479284411136,9.818299002304077,51.575818441113604,13.756189002304076,50.697058441113604,17.700709002304077C49.032038441113606,17.700709002304077,47.36041844111361,17.700709002304077,45.69540844111361,17.700709002304077C42.60323644111361,17.64780900230408,41.28179244111361,15.982809002304077,41.90286944111361,12.956719002304077C42.42483844111361,10.597949002304077,42.9468084411136,8.239179002304077,43.46877844111361,5.8870163523040775C44.44003844111361,5.8870163523040775,45.411288441113605,5.8870163523040775,46.382548441113606,5.8870163523040775C45.8143284411136,8.457219002304077,45.24611844111361,11.027419002304077,44.6712884411136,13.597619002304077C44.598608441113605,13.954409002304077,44.558968441113606,14.397089002304076,44.677898441113605,14.760489002304077C44.81664844111361,15.183349002304077,45.13378844111361,15.388169002304076,45.569868441113606,15.394779002304077C46.660058441113605,15.394779002304077,47.75023844111361,15.394779002304077,48.84042844111361,15.394779002304077C49.540788441113605,12.223319002304077,50.24776844111361,9.058469002304077,50.94812844111361,5.8870163523040775C51.74098844111361,5.880409153679077,52.52722844111361,5.880409002304077,53.32012844111361,5.880409002304077Z" fill="#2387FF" fill-opacity="1"/></g><g style="mix-blend-mode:passthrough"><path d="M71.6881339879886,8.186319002304078C70.5781239879886,8.186319002304078,69.47472398798861,8.186319002304078,68.36471398798861,8.186319002304078C68.0079239879886,8.199539002304077,67.7238139879886,8.595969002304077,67.57845398798861,8.847039002304077C67.4000639879886,9.164189002304077,67.28112398798861,9.487939002304078,67.1952339879886,9.838119002304078C66.6138039879886,12.454579002304076,66.0323639879886,15.077639002304076,65.4509339879886,17.694109002304078C64.4796739879886,17.694109002304078,63.508421987988605,17.694109002304078,62.537163987988606,17.694109002304078C63.16484798798861,14.852989002304078,63.79914398798861,12.011889002304077,64.42682398798861,9.177399002304078C64.8893239879886,7.274529002304077,66.57416398798861,5.920052202304078,68.53650398798861,5.880409002304077C69.9041939879886,5.880409002304077,71.27848398798861,5.880409002304077,72.6461639879886,5.880409002304077C72.3224239879886,6.646844002304077,72.0052739879886,7.419889002304077,71.6881339879886,8.186319002304078Z" fill="#2387FF" fill-opacity="1"/></g><g style="mix-blend-mode:passthrough"><path d="M81.12982485712924,5.880409002304077C80.09249485712922,5.880409002304077,79.04856485712924,5.880409002304077,78.01123485712922,5.880409002304077C76.05550485712924,5.920052202304078,74.36406485712924,7.274529002304077,73.90155685712924,9.177399002304078C73.62405485712924,10.432769002304077,73.34655485712923,11.694749002304077,73.06244585712923,12.950119002304078C72.44136985712923,15.976209002304078,73.76280685712923,17.641209002304077,76.85497485712924,17.694109002304078C78.24248485712923,17.694109002304078,79.62999485712923,17.694109002304078,81.02411485712923,17.694109002304078C81.34125485712923,16.927609002304077,81.65840485712923,16.154609002304078,81.98215485712923,15.388169002304076C80.23785485712924,15.388169002304076,78.48695485712923,15.388169002304076,76.74265485712922,15.388169002304076C76.31318485712923,15.374959002304077,75.98943485712923,15.176739002304076,75.85068485712924,14.753879002304076C75.73175485712923,14.390489002304077,75.77139485712924,13.947799002304077,75.84407485712923,13.591019002304076C75.87050485712923,13.458869002304077,75.90353485712923,13.326729002304077,75.92996485712924,13.194579002304078C77.39015485712923,13.194579002304078,78.85034485712923,13.194579002304078,80.30392485712923,13.194579002304078C81.09018485712923,13.174759002304077,81.81036485712923,12.837789002304078,82.37197485712923,12.309219002304078C82.93360485712923,11.780639002304078,83.31680485712923,11.073669002304078,83.49520485712924,10.333669002304077C83.58110485712923,9.943839002304077,83.66700485712923,9.560619002304078,83.75290485712924,9.170799002304078C84.18230485712922,7.069709002304077,83.27060485712923,5.913445002304077,81.12982485712924,5.880409002304077ZM81.36768485712923,9.250079002304076C81.32804485712923,9.435089002304077,81.28839485712923,9.620089002304077,81.24214485712923,9.805089002304078C81.18268485712923,10.049559002304077,81.07036485712923,10.294019002304077,80.91178485712923,10.492239002304078C80.75982485712923,10.683849002304077,80.53517485712923,10.855629002304077,80.27089485712924,10.875449002304077C78.98909485712923,10.875449002304077,77.71390485712924,10.875449002304077,76.43211485712924,10.875449002304077C76.51139485712923,10.531879002304077,76.58407485712922,10.181699002304077,76.66336485712924,9.838119002304078C76.74925485712923,9.487939002304078,76.86158485712923,9.157579002304077,77.04658485712923,8.847039002304077C77.19194485712923,8.595969002304077,77.47605485712923,8.206149002304077,77.83283485712923,8.186319002304078C78.84374485712922,8.186319002304078,79.86124485712924,8.186319002304078,80.87214485712923,8.186319002304078C81.12322485712923,8.199539002304077,81.29500485712923,8.331679002304078,81.36768485712923,8.576149002304078C81.43375485712923,8.787579002304078,81.41393485712923,9.045259002304077,81.36768485712923,9.250079002304076Z" fill="#2387FF" fill-opacity="1"/></g><g style="mix-blend-mode:passthrough"><path d="M95.65241105219759,10.624382185058593C95.13051105219759,12.983152185058593,94.60851105219758,15.341922185058595,94.08654105219759,17.694102185058593C93.30028105219759,17.694102185058593,92.50743105219759,17.694102185058593,91.72117105219759,17.694102185058593C92.28939105219759,15.123882185058594,92.8576110521976,12.553682185058594,93.43243105219759,9.983482185058595C93.50511105219759,9.626692185058594,93.5447510521976,9.184012185058593,93.42582105219759,8.820612185058593C93.28707105219759,8.397752185058593,92.9699310521976,8.192932185058593,92.53385105219759,8.186322185058593C91.4436610521976,8.186322185058593,90.3534810521976,8.186322185058593,89.26329105219759,8.186322185058593C88.56293105219758,11.357782185058593,87.8559510521976,14.522632185058594,87.1555910521976,17.694102185058593C86.18433105219759,17.694102185058593,85.2130700521976,17.694102185058593,84.24181105219759,17.694102185058593C85.11396205219759,13.756192185058595,85.98611105219759,9.818302185058593,86.86487105219759,5.873802185058594C88.52989105219758,5.873802185058594,90.20150105219759,5.873802185058594,91.86652105219758,5.873802185058594C94.9521110521976,5.9332669850585935,96.27351105219759,7.5982821850585935,95.65241105219759,10.624382185058593Z" fill="#2387FF" fill-opacity="1"/></g><g style="mix-blend-mode:passthrough"><path d="M103.90484836420931,17.694038315582276C103.5678783642093,17.694038315582276,103.23091836420932,17.694038315582276,102.89394836420931,17.694038315582276C99.80177836420931,17.641238315582275,98.4803383642093,15.976238315582275,99.10141636420931,12.950138315582276C99.4515983642093,11.364388315582275,99.80177836420931,9.772048315582275,100.15856836420932,8.186318315582275C99.50444836420931,8.186318315582275,98.84373236420932,8.186318315582275,98.18961836420931,8.186318315582275C98.3614053642093,7.419888315582275,98.5331963642093,6.646848315582275,98.69837636420931,5.880408315582275C99.35248836420931,5.880408315582275,100.0132083642093,5.880408315582275,100.66731836420931,5.880408315582275C100.9051783642093,4.816648315582275,101.13642836420931,3.7594983155822748,101.3742883642093,2.695738315582275C102.34554836420931,2.695738315582275,103.31680836420931,2.695738315582275,104.28806836420931,2.695738315582275C104.05020836420931,3.7594983155822748,103.81895836420931,4.816648315582275,103.58110836420931,5.880408315582275C104.44664836420931,5.880408315582275,105.31219836420931,5.880408315582275,106.18434836420931,5.880408315582275C105.86719836420932,6.646848315582275,105.5500483642093,7.419888315582275,105.22628836420931,8.186318315582275C104.50610836420931,8.186318315582275,103.78592836420931,8.186318315582275,103.0723483642093,8.186318315582275C102.6759083642093,9.983478315582275,102.2728783642093,11.787248315582275,101.8764383642093,13.584438315582275C101.80375836420932,13.941238315582275,101.76411836420931,14.383838315582276,101.88304836420932,14.747238315582276C102.0217983642093,15.170138315582275,102.33894836420932,15.374938315582275,102.7750183642093,15.381538315582276C103.46877836420931,15.381538315582276,104.1691483642093,15.381538315582276,104.8629083642093,15.381538315582276C104.53914836420931,16.154638315582275,104.22199836420931,16.927638315582275,103.90484836420931,17.694038315582276Z" fill="#2387FF" fill-opacity="1"/></g></g><g style="mix-blend-mode:passthrough"><g style="mix-blend-mode:passthrough"><path d="M118.09053794733919,17.694113448333738C116.0422679473392,17.694113448333738,114.00064794733919,17.694113448333738,111.95241794733919,17.694113448333738C108.8602449473392,17.64121344833374,107.5388019473392,15.97621344833374,108.1598789473392,12.95011344833374C108.70166894733919,10.49884344833374,109.2434679473392,8.05417344833374,109.78525794733919,5.602903448333739C110.2477579473392,3.70003344833374,111.93259794733919,2.34555664833374,113.8949279473392,2.30591344833374C116.1810179473392,2.30591344833374,118.47373794733919,2.30591344833374,120.7598379473392,2.30591344833374C120.4426379473392,3.0723484483337398,120.1255379473392,3.8453934483337395,119.80173794733919,4.611823448333739C117.8526479473392,4.611823448333739,115.9035179473392,4.611823448333739,113.95439794733919,4.611823448333739C113.59760794733918,4.62504344833374,113.31349794733919,5.02147344833374,113.16813794733919,5.27254344833374C112.9897379473392,5.58969344833374,112.87080794733919,5.91344344833374,112.7849179473392,6.26362344833374C112.24312794733919,8.701683448333739,111.7013379473392,11.139743448333741,111.16615794733919,13.57781344833374C111.0934779473392,13.93461344833374,111.05382794733919,14.37731344833374,111.17275794733919,14.74071344833374C111.3115079473392,15.16351344833374,111.62865794733919,15.36831344833374,112.0647379473392,15.374913448333741C114.39046794733919,15.374913448333741,116.7161979473392,15.374913448333741,119.04193794733919,15.374913448333741C118.7248379473392,16.154613448333738,118.4076379473392,16.92761344833374,118.09053794733919,17.694113448333738Z" fill="#000000" fill-opacity="1"/></g><g style="mix-blend-mode:passthrough"><path d="M131.29835822474396,2.3059134483337407C129.970268224744,2.3059134483337407,128.63560822474398,2.3059134483337407,127.30755822474397,2.3059134483337407C125.35182822474398,2.3455566483337407,123.66039822474397,3.7000334483337407,123.19788822474398,5.602903448333741C122.30591822474398,9.633303448333741,121.41393722474398,13.66371344833374,120.51535822474398,17.69411344833374C121.56589822474398,17.69411344833374,122.61644822474398,17.69411344833374,123.66699822474398,17.69411344833374C124.09646822474397,15.77141344833374,124.51932822474397,13.84871344833374,124.94879822474398,11.92599344833374C126.91773822474397,11.92599344833374,128.88668822474398,11.92599344833374,130.86225822474398,11.92599344833374C130.43276822474397,13.84871344833374,130.00990822474398,15.77141344833374,129.58043822474397,17.69411344833374C130.63095822474398,17.69411344833374,131.68155822474398,17.69411344833374,132.73205822474398,17.69411344833374C133.51835822474396,14.14601344833374,134.30455822474397,10.59795344833374,135.09085822474398,7.049883448333741C135.718558224744,4.023783448333741,134.39705822474397,2.365378248333741,131.29835822474396,2.3059134483337407ZM132.08455822474397,6.415593448333741C131.84675822474398,7.479353448333741,131.61545822474397,8.54972344833374,131.37755822474398,9.61347344833374C129.40864822474398,9.61347344833374,127.43970822474398,9.61347344833374,125.46415822474398,9.61347344833374C125.70861822474397,8.496863448333741,125.95968822474397,7.38024344833374,126.20415822474398,6.263623448333741C126.29004822474397,5.913443448333741,126.40237822474398,5.58308344833374,126.58737822474397,5.272543448333741C126.73273822474398,5.02147344833374,127.01684822474398,4.63164344833374,127.37363822474397,4.611823448333741C128.64221822474397,4.611823448333741,129.910808224744,4.611823448333741,131.18595822474398,4.611823448333741C131.61545822474397,4.625043448333741,131.93925822474398,4.823253448333741,132.07795822474398,5.246113448333741C132.19685822474398,5.616123448333741,132.15065822474398,6.058803448333741,132.08455822474397,6.415593448333741Z" fill="#000000" fill-opacity="1"/></g><g style="mix-blend-mode:passthrough"><path d="M145.88697129694856,2.3059134483337407C143.42913129694855,2.3059134483337407,140.97785129694856,2.3059134483337407,138.51998129694857,2.3059134483337407C137.38354129694858,7.433103448333741,136.24711129694856,12.56691344833374,135.11067129694857,17.69411344833374C138.05748129694857,17.69411344833374,141.00429129694857,17.69411344833374,143.94449129694857,17.69411344833374C145.90027129694857,17.65441344833374,147.59167129694856,16.30001344833374,148.05417129694857,14.39711344833374C148.59597129694856,11.95242344833374,149.13777129694856,9.50115344833374,149.67957129694855,7.049883448333741C150.30717129694858,4.023783448333741,148.98577129694857,2.365378248333741,145.88697129694856,2.3059134483337407ZM146.67327129694857,6.415593448333741C146.13147129694858,8.853653448333741,145.58967129694855,11.29170344833374,145.05450129694856,13.72981344833374C144.96860129694858,14.07991344833374,144.85629129694857,14.41031344833374,144.67129129694857,14.72081344833374C144.52593129694856,14.97191344833374,144.24182129694856,15.36171344833374,143.88503129694857,15.38161344833374C142.18037129694858,15.38161344833374,140.48231129694858,15.38161344833374,138.77766129694857,15.38161344833374C139.57052129694856,11.79385344833374,140.36999129694857,8.19953344833374,141.16286129694856,4.611823448333741C142.70233129694856,4.611823448333741,144.23521129694856,4.611823448333741,145.77467129694855,4.611823448333741C146.20417129694857,4.625043448333741,146.52787129694858,4.823253448333741,146.66667129694858,5.246113448333741C146.77897129694855,5.616123448333741,146.73937129694858,6.058803448333741,146.67327129694857,6.415593448333741Z" fill="#000000" fill-opacity="1"/></g></g></g></g></g></svg>